<svg xmlns="http://www.w3.org/2000/svg" width="142" height="72" viewBox="0 0 142 72">
  <title>
    logo-color-uber-atg
  </title>
  <g fill="none" fill-rule="evenodd">
    <g transform="translate(0 29)">
      <path fill="#000000" d="M13.992 1.01v10.76c0 3.592-1.516 5.085-5.053 5.085s-5.053-1.493-5.053-5.085V.536H.454a.397.397 0 0 0-.45.347.442.442 0 0 0 0 .126v10.936c0 6.01 3.644 8.114 8.93 8.114s8.93-2.125 8.93-8.109V.536h-3.422a.397.397 0 0 0-.45.347.442.442 0 0 0 0 .126M63.546 3.66a.468.468 0 0 0 .505-.313L65.062.775c.056-.159 0-.233-.152-.233H51.125c-1.289 0-1.774.414-1.774 1.333v16.728c0 .787.374 1.137 1.364 1.137h12.831a.468.468 0 0 0 .505-.313l1.011-2.572c.056-.16 0-.234-.152-.234H53.161v-3.417c0-1.18.617-1.71 2.28-1.71h5.078a.468.468 0 0 0 .505-.314l.955-2.476c.056-.16 0-.234-.151-.234H53.16V3.66h10.385zM35.727 16.68h-6.761v-3.555c0-1.18.616-1.711 2.279-1.711h4.482c2.148 0 2.744.866 2.744 2.656 0 1.791-.596 2.61-2.744 2.61zM28.966 3.58h6.064c2.02 0 2.577.808 2.577 2.476 0 1.669-.576 2.45-2.593 2.45H28.95l.016-4.926zM39.31 9.612c1.516-.823 2.112-2.375 2.112-4.203.02-4.246-3.285-4.873-6.686-4.873h-7.772c-1.288 0-1.773.415-1.773 1.334v16.733c0 .787.374 1.137 1.364 1.137h9.561c3.603 0 6.18-1.472 6.18-5.314.005-2.3-.93-4.245-2.986-4.814zM81.763 9.432h-6.367V3.618h6.367c2.37 0 2.895.962 2.895 2.907s-.52 2.907-2.895 2.907M88.9 19.39l-4.089-7.386c2.022-.532 3.68-1.967 3.68-5.559 0-4.65-2.745-5.909-7.288-5.909H73.4c-1.289 0-1.774.415-1.774 1.334v17.381a.413.413 0 0 0 .33.473.38.38 0 0 0 .12 0h3.325V14.13c0-1.18.617-1.711 2.28-1.711h3.38l3.699 6.992c.088.208.29.334.505.314h3.477c.232 0 .232-.217.157-.334"/>
      <path fill="#898989" d="M112.14 13.46l-2.527-7.833-.455-1.493h-.066l-.44 1.493-2.592 7.833h6.08zm-8.036 6.206h-2.425l6.064-17.477h2.794l6.104 17.477h-2.526l-1.355-4.22h-7.291l-1.365 4.22z"/>
      <polygon fill="#898989" points="120.74 19.666 120.74 4.394 115.844 4.394 115.844 2.2 127.972 2.2 127.972 4.394 123.049 4.394 123.049 19.666"/>
      <path fill="#898989" d="M129.427 11.01c0-3.189.613-5.503 1.84-6.945 1.225-1.442 3.16-2.165 5.806-2.168a12.89 12.89 0 0 1 2.46.233c.727.134 1.44.344 2.128.627l-.243 2.168a12.285 12.285 0 0 0-4.411-.887 6.136 6.136 0 0 0-2.992.627 3.784 3.784 0 0 0-1.672 2.126 12.68 12.68 0 0 0-.541 4.16c-.044 1.39.127 2.78.505 4.113.26.91.835 1.685 1.612 2.168a5.76 5.76 0 0 0 2.962.654c1 .005 1.995-.16 2.946-.489v-4.99h-3.124v-1.913h5.185v8.396c-.729.37-1.5.64-2.294.802-.921.21-1.861.315-2.805.314a8.28 8.28 0 0 1-4.219-.946 5.52 5.52 0 0 1-2.36-2.922 14.629 14.629 0 0 1-.783-5.128"/>
    </g>
    <rect width="142" height="72"/>
  </g>
</svg>
