<svg xmlns="http://www.w3.org/2000/svg" width="100" height="72" viewBox="0 0 100 72">
  <title>
    logo-color-harman
  </title>
  <g fill="none" fill-rule="evenodd">
    <g transform="translate(0 10)">
      <path fill="#0F4187" d="M65.918 23.924v13.67c-.606-.048-1.197-.041-1.764-.153-.67-.132-1.016-.65-1.017-1.377-.003-2.76-.001-5.52-.001-8.28v-.55a38.37 38.37 0 0 1-.095-.042c-.081.128-.169.253-.243.386-1.73 3.101-3.454 6.206-5.194 9.302-.164.292-.213.703-.743.696-.525-.007-.568-.42-.735-.711-1.774-3.096-3.532-6.201-5.296-9.303a.987.987 0 0 0-.367-.396v10.363h-1.394V23.93c.885 0 1.742-.021 2.595.02.151.007.33.254.428.428 1.682 2.955 3.352 5.916 5.026 8.876.13.231.265.46.447.778.13-.221.223-.369.307-.52 1.69-3.047 3.384-6.092 5.06-9.146.176-.32.364-.467.741-.452.737.03 1.476.009 2.245.009M36.408 25.137c0 1.638-.004 3.28.01 4.921.001.085.151.24.235.241 1.062.03 2.134.06 3.127-.404 1.2-.561 1.763-1.555 1.573-2.701-.18-1.08-1.087-1.928-2.328-2.042-.833-.077-1.678-.015-2.617-.015m.012 6.166c0 1.935-.017 3.785.011 5.635.008.486-.125.655-.62.619a13.223 13.223 0 0 0-1.72-.002c-.429.025-.539-.13-.538-.544.014-4.174.009-8.347.009-12.521 0-.067.005-.135 0-.202-.02-.255.089-.37.35-.364 2.243.05 4.491.027 6.727.181.8.055 1.65.414 2.343.846 1.887 1.175 1.959 3.678.185 5.021-.476.36-1.058.58-1.597.854-.175.089-.367.145-.608.238l5.36 6.389c-1.465.519-3.34.03-4.273-1.101-1.211-1.47-2.436-2.928-3.613-4.423-.37-.47-.75-.727-1.353-.631-.194.031-.396.005-.663.005M2.84 37.558c-.91 0-1.717.013-2.523-.015-.108-.004-.29-.207-.298-.326-.032-.554-.014-1.11-.014-1.665V24.597c0-.672 0-.672.696-.673.557 0 1.115.016 1.671-.005.358-.014.466.124.463.47-.013 1.682.01 3.365-.015 5.048-.007.455.145.566.58.562 2.009-.02 4.018-.02 6.027 0 .42.003.549-.12.543-.541-.021-1.632-.009-3.264-.008-4.897v-.628c.894 0 1.747-.006 2.6.01.076.001.183.126.218.216.04.104.015.232.015.35 0 4.156-.006 8.313.01 12.469.002.46-.12.662-.591.583-.066-.011-.135-.002-.203-.002-1.48.001-2.135-.425-2.06-2.02.056-1.226.01-2.456.01-3.684v-.635H2.84v6.338zM98.01 33.462V30.1v-4.9c0-1.18.299-1.42 1.558-1.218v13.552c-.687.057-1.295.004-1.833-.555-3.004-3.123-6.032-6.223-9.054-9.33-.1-.102-.21-.194-.413-.382V37.53h-1.597c-.01-.186-.028-.349-.028-.512 0-4.175.006-8.35-.01-12.526-.002-.434.108-.548.555-.586.897-.077 1.525.226 2.158.877 2.714 2.793 5.49 5.528 8.243 8.283.103.104.213.201.421.397M30.792 37.541c-.698 0-1.321.02-1.943-.005-.688-.026-1.162-.395-1.466-1.002-.49-.978-.997-1.948-1.475-2.932-.145-.298-.324-.41-.662-.405-1.368.02-2.737.008-4.105.008H20.5c.235-.458.403-.837.623-1.184.066-.104.276-.162.422-.165.945-.014 1.892-.007 2.837-.007h.609l-2.368-4.622c-.127.22-.214.358-.29.503-1.617 3.068-3.242 6.131-4.835 9.211-.241.466-.504.704-1.039.625-.263-.039-.537-.007-.872-.007.059-.165.087-.289.144-.397 2.311-4.395 4.628-8.788 6.933-13.186.137-.262.296-.366.587-.356.27.01.468.045.61.326 2.266 4.437 4.543 8.868 6.816 13.301.037.072.06.15.116.294M73.279 31.849c1.157 0 2.186.025 3.214-.012.44-.016.688.113.832.525.092.262.251.5.428.843h-.927c-1.232 0-2.465.015-3.698-.009-.401-.007-.634.1-.821.48-.565 1.147-1.196 2.26-1.763 3.407-.186.374-.407.526-.818.483-.315-.033-.638-.006-1.02-.006.06-.163.088-.287.145-.396 2.308-4.395 4.621-8.787 6.922-13.185.138-.263.302-.421.582-.343.215.06.51.15.595.317 2.306 4.452 4.59 8.916 6.876 13.378.022.043.028.094.082.283-.862-.066-1.698-.028-2.47-.232-.393-.104-.774-.588-.987-.991-1.496-2.844-2.947-5.712-4.413-8.571-.084-.164-.174-.325-.322-.6l-2.437 4.629"/>
      <path fill="#2CACCB" d="M25.817 18.197S48.342-1.67 68.695.113c18.448 1.617 9.63 18.084 9.63 18.084H74.27s3.941-7.57-.507-12.325c-6.994-7.476-30.105-.808-46.527 12.325h-1.419z"/>
      <path fill="#2CACCB" d="M27.54 18.197s19.132-10.46 39.33-9.092c16.421 1.11 19.564 9.092 19.564 9.092h1.723s-2.52-7.2-16.016-9.497c-16.624-2.828-34.97 3.637-45.31 9.497M16.289 44.767s1.214 7.307 11.251 7.757c11.252.503 24.632-7.757 24.632-7.757h-3.548s-12.163 7.354-21.692 6.85c-6.087-.322-9.224-3.627-10.238-6.85h-.405z"/>
      <path fill="#2CACCB" d="M19.33 44.767s4.561 6.447 20.881 6.044c16.32-.403 25.747-6.044 25.747-6.044h-.912s-12.489 5.238-25.24 5.238c-10.863 0-17.03-2.51-19.868-5.238h-.608z"/>
    </g>
    <rect width="100" height="72"/>
  </g>
</svg>
