<svg xmlns="http://www.w3.org/2000/svg" width="78" height="72" viewBox="0 0 78 72">
  <title>
    logo-color-lucid
  </title>
  <defs>
    <linearGradient id="a" x1="50%" x2="50%" y1="0%" y2="100%">
      <stop stop-color="#009FD2" offset="1.566%"/>
      <stop stop-color="#8AD1F4" offset="100%"/>
    </linearGradient>
  </defs>
  <g fill="none" fill-rule="evenodd">
    <g fill="url(#a)" transform="translate(0 30.286)">
      <path d="M.013.782c.022.674.006 1.35.007 2.024.006 3.115-.071 6.234.043 9.346.115 3.12 1.54 5.315 4.927 6.179 1.466.374 2.958.458 4.457.468 1.943.012.478.003 2.421.003 2.157 0 1.588-.008 3.745.008.348.004.424-.105.417-.432a55.5 55.5 0 0 1 .002-2.93c.013-.382-.091-.471-.468-.47-4.243.015-2.352.01-6.594.009-.643 0-1.287-.018-1.921-.121-.75-.123-1.489-.29-2.075-.83-.751-.69-.896-1.611-.9-2.556-.015-3.576-.01-7.15 0-10.726.001-.293-.06-.392-.37-.386-1.1.02-2.2.023-3.3-.002h-.03c-.313 0-.37.119-.361.416M32.282 1.032c.012 5.077.007 3.304.008 8.382 0 .586-.038 1.168-.121 1.748-.268 1.85-1.15 2.883-2.901 3.21-1.67.312-3.358.3-5.032-.022-1.432-.275-2.304-1.145-2.668-2.56a8.994 8.994 0 0 1-.263-2.257c-.001-5.136-.004-3.421.008-8.557.001-.37-.102-.466-.46-.457-.96.024-1.922.026-2.882 0-.384-.01-.511.074-.508.492.021 2.721.011 3.73.011 6.452v1.841c0 1.099.075 2.191.285 3.272.567 2.913 2.118 4.985 5.058 5.752 1.325.346 2.658.524 3.99.526h.047a15.265 15.265 0 0 0 4.197-.598c2.151-.617 3.619-2.032 4.391-4.16.525-1.45.7-2.96.707-4.482.023-5.194.006-3.538.015-8.732.001-.303-.103-.364-.377-.36-1.005.014-2.01.029-3.014-.006h-.055c-.372 0-.437.15-.436.516M52.789 0C50.08.02 52.485.01 49.777.01H47.945c-1.093.001-2.18.075-3.255.286-2.898.57-4.959 2.13-5.723 5.084-.712 2.752-.706 5.536.072 8.276.613 2.163 2.021 3.638 4.14 4.413 1.441.529 2.943.705 4.457.711 3.13.014 2.51.013 2.683.013.112 0 .56-.001 2.598.002.302 0 .362-.104.358-.379-.014-1.009-.029-2.02.005-3.029.015-.422-.13-.494-.512-.494-3.833.01-1.781.01-2.774.01l-2.158-.001c-.583 0-1.161-.038-1.739-.123-1.841-.268-2.869-1.154-3.194-2.915a13.645 13.645 0 0 1 .022-5.057c.273-1.44 1.139-2.317 2.546-2.682a8.885 8.885 0 0 1 2.246-.264c5.11-.001-.004-.005 5.106.008.367 0 .463-.103.455-.463a55.633 55.633 0 0 1 0-2.897c.01-.376-.07-.508-.463-.51h-.026zM59.796.003c-1.134.02-2.27.014-3.404.004-.26-.002-.387.033-.386.35.01 6.025.009 12.05 0 18.075 0 .3.105.367.38.364a97.962 97.962 0 0 1 3.361.003c.362.008.425-.119.424-.448-.012-2.983-.007-5.967-.007-8.95 0-2.998-.004-5.995.006-8.993 0-.283-.046-.405-.35-.405h-.024M63.196 0c-.393.002-.473.134-.463.51.026.965.024 1.932 0 2.897-.009.36.088.464.455.463 5.11-.013-.004-.01 5.106-.008.758 0 1.507.072 2.246.264 1.407.365 2.273 1.243 2.546 2.682.32 1.683.332 3.379.022 5.057-.325 1.76-1.352 2.647-3.194 2.915-.577.085-1.156.123-1.739.123h-2.159c-.991 0 1.06 0-2.772-.009-.383 0-.528.072-.514.494.035 1.009.02 2.02.007 3.03-.005.274.056.379.357.378 2.037-.003 2.486-.003 2.598-.002.173 0-.448.001 2.683-.013 1.514-.006 3.016-.182 4.457-.71 2.119-.776 3.527-2.251 4.14-4.414.778-2.74.784-5.524.072-8.276C76.28 2.426 74.22.867 71.32.297c-1.075-.21-2.16-.285-3.253-.285L67.2.01h-.966c-2.708 0-.304.01-3.011-.011h-.027z"/>
    </g>
    <rect width="77.737" height="71.448"/>
  </g>
</svg>
