<svg xmlns="http://www.w3.org/2000/svg" width="136" height="72" viewBox="0 0 136 72">
  <title>
    logo-color-nvidia
  </title>
  <g fill="none" fill-rule="evenodd">
    <g transform="translate(0 26.042)">
      <path fill="#77B900" d="M4.118 11.794S7.763 6.29 15.04 5.72V3.725C6.98 4.387 0 11.372 0 11.372s3.953 11.696 15.04 12.766v-2.121C6.904 20.969 4.118 11.794 4.118 11.794zm10.922 6.002v1.943c-6.15-1.12-7.856-7.662-7.856-7.662s2.953-3.348 7.856-3.89v2.133l-.01-.001c-2.573-.316-4.584 2.143-4.584 2.143s1.127 4.143 4.594 5.334zm0-17.754v3.683c.236-.02.473-.034.71-.043 9.165-.316 15.134 7.69 15.134 7.69s-6.857 8.534-14.001 8.534c-.654 0-1.267-.062-1.843-.167v2.278c.492.063 1.003.101 1.535.101 6.648 0 11.456-3.474 16.112-7.586.77.633 3.93 2.17 4.581 2.845-4.427 3.792-14.743 6.849-20.591 6.849-.563 0-1.106-.035-1.637-.088v3.2h25.268V.042H15.04zm0 8.145V5.721c.234-.017.47-.03.71-.037 6.59-.212 10.913 5.794 10.913 5.794s-4.669 6.637-9.675 6.637a5.95 5.95 0 0 1-1.948-.319V10.32c2.565.317 3.08 1.476 4.623 4.107l3.43-2.96s-2.503-3.36-6.724-3.36c-.46 0-.899.032-1.329.08z"/>
      <path fill="#000000" d="M125.825 7.95l2.885 8.09h-5.866l2.98-8.09zm-3.097-3.152l-6.66 17.27h4.704l1.054-3.052h7.874l1.006 3.052h5.108l-6.717-17.27h-6.37zm-13.37 17.276h4.77V4.793h-4.77v17.281zM76.23 4.793l-3.98 13.696-3.815-13.696h-5.148l5.446 17.281h6.875L81.1 4.793h-4.868zM95.52 8.555h2.05c2.975 0 4.9 1.368 4.9 4.914 0 3.55-1.925 4.917-4.9 4.917h-2.05V8.555zm-4.731-3.762v17.281h7.735c4.122 0 5.467-.701 6.923-2.274 1.028-1.104 1.692-3.527 1.692-6.177 0-2.428-.562-4.596-1.543-5.946-1.768-2.414-4.314-2.884-8.113-2.884h-6.694zm-45.201-.026v17.307h4.812V8.934h3.728c1.235 0 2.114.316 2.71.965.754.822 1.062 2.15 1.062 4.576v7.6h4.662v-9.562c0-6.825-4.25-7.746-8.41-7.746h-8.564zm37.52.024l.003 17.283h4.77V4.791h-4.772z"/>
    </g>
    <rect width="136" height="72"/>
  </g>
</svg>
