<svg xmlns="http://www.w3.org/2000/svg" width="134" height="72" viewBox="0 0 134 72">
  <title>
    logo-color-rakuten
  </title>
  <g fill="none" fill-rule="evenodd">
    <g transform="translate(0 27)">
      <path fill="#FFFFFF" d="M8.717 21.699c-3.3-.55-6.105-2.658-7.6-5.711C.292 14.304-.005 12.997 0 11.076.004 9.36.273 8.088.943 6.598c1.41-3.13 4.22-5.369 7.575-6.034.798-.158 2.844-.136 3.653.04 1.473.32 2.67.832 3.882 1.66 2.02 1.38 3.6 3.703 4.209 6.187 1.456 5.944-2.169 11.934-7.972 13.171-.838.18-2.717.22-3.573.077z"/>
      <path fill="#000000" d="M45.997 21.208c-1.64-.364-3.098-1.348-4.135-2.789-1.056-1.467-1.567-2.99-1.639-4.883-.067-1.782.192-3.122.878-4.535 1.665-3.428 5.313-5.008 8.521-3.691.27.11.609.276.755.368.355.225.384.216.384-.12V5.27h3.573v15.646h-3.573v-.288c0-.159-.014-.288-.032-.288-.018 0-.33.147-.695.327-.364.18-.877.387-1.139.46-.654.183-2.241.227-2.898.081zm2.245-3.798c2.106-.763 3.153-4 2.094-6.48-1.053-2.467-3.567-3.102-5.253-1.326-.784.827-1.307 2.223-1.307 3.49 0 2.095 1.256 4.019 2.9 4.44.382.098 1.112.04 1.566-.124zm30.985 3.786c-1.928-.445-3.613-1.8-4.484-3.604-.73-1.51-.717-1.387-.717-7.23V5.27H77.6v4.802c0 5.282 0 5.286.49 6.086.636 1.037 1.895 1.615 3.021 1.385 1.185-.242 1.98-.96 2.36-2.128.159-.488.164-.67.164-5.346V5.23l1.787.024 1.786.023v15.64h-1.786c-1.717 0-1.787-.006-1.787-.16 0-.157-.007-.157-.37.01-.802.367-1.39.494-2.449.527-.742.023-1.188-.005-1.588-.097zm17.125-.03c-1.96-.55-3.428-2.21-3.79-4.285-.08-.458-.11-1.56-.111-4.261l-.003-3.644h-2.54V5.229l1.27.025 1.27.024v-3.96h3.574v3.867l.178.045c.098.026 1.295.036 2.66.023l2.482-.024v3.747h-5.32v3.365c0 1.936.034 3.552.08 3.806.115.63.401 1.035.897 1.275.227.109.537.198.69.198.406-.002.883-.257 1.203-.645.155-.188.35-.34.432-.34.171.003 3.281.87 3.342.933.06.062-.51 1.198-.822 1.638-.583.823-1.493 1.498-2.545 1.887-.69.255-2.169.291-2.947.073zm13.457.033c-1.47-.342-3.02-1.273-4.063-2.44-1.982-2.221-2.653-5.287-1.813-8.292.722-2.583 2.493-4.57 4.753-5.332.497-.168.852-.223 1.636-.256 1.2-.05 1.853.052 2.748.429 2.686 1.131 4.518 3.986 4.683 7.297.026.525.023 1.09-.007 1.256l-.055.303h-5.038c-5.733 0-5.169-.088-4.888.757.633 1.909 2.655 3.095 4.38 2.57.617-.188 1.185-.545 1.7-1.07.245-.252.475-.445.51-.43.036.014.745.432 1.577.93l1.513.904-.169.249c-.314.463-1.6 1.739-2.078 2.062-.56.378-1.476.8-2.145.989-.69.195-2.542.237-3.244.074zm3.814-10.624c-.182-1.169-1.284-2.148-2.519-2.24-1.307-.096-2.689.695-3.211 1.841-.345.755-.59.694 2.788.694h2.988l-.046-.295zM60.15 20.935l-1.766-.022V0h3.573v10.91l2.72-2.82 2.72-2.82h5.08l-3.51 3.644-3.509 3.644 3.975 4.179 3.974 4.179H68.348l-3.136-3.253c-1.724-1.789-3.162-3.252-3.194-3.252-.033 0-.069 1.473-.08 3.273l-.02 3.273-1.768-.022zm-35.433-9.822V1.31l3.593.027c4.048.031 3.972.022 5.264.683 1.715.877 2.946 2.454 3.416 4.375.593 2.424-.143 4.995-1.912 6.674l-.588.56 2.617 3.616c1.44 1.989 2.617 3.629 2.617 3.644 0 .015-1.01.027-2.244.027h-2.243l-2.203-3.047-2.204-3.047h-2.46v6.094h-3.653v-9.803zm6.846-.167c.856-.3 1.387-.803 1.794-1.706.18-.396.213-.58.21-1.17-.001-.588-.037-.78-.221-1.194-.289-.648-.9-1.285-1.514-1.578-.467-.223-.54-.232-1.974-.26l-1.489-.03v6.109h1.353c1.158 0 1.422-.025 1.841-.171zm88.994 2.147V5.27h1.826c1.78 0 1.826.004 1.826.167 0 .165.002.165.3.008.78-.414 1.428-.545 2.678-.545 1.34 0 1.832.1 2.794.572.83.406 1.42.849 2.052 1.54.664.724 1.152 1.567 1.494 2.581l.25.741.024 5.291.023 5.291h-3.574l-.023-4.961c-.022-4.755-.03-4.978-.182-5.347-.537-1.3-1.549-2.007-2.858-1.998-1.176.008-2.154.646-2.676 1.747l-.262.55-.022 5.005-.022 5.004h-3.648v-7.823z"/>
      <path fill="#C02229" d="M8.717 21.699c-3.3-.55-6.105-2.658-7.6-5.711C.292 14.304-.005 12.997 0 11.076.004 9.36.273 8.088.943 6.598c1.41-3.13 4.22-5.369 7.575-6.034.798-.158 2.844-.136 3.653.04 1.473.32 2.67.832 3.882 1.66 2.02 1.38 3.6 3.703 4.209 6.187 1.456 5.944-2.169 11.934-7.972 13.171-.838.18-2.717.22-3.573.077zm.198-6.588v-1.77h.735l.734.002 1.27 1.767 1.271 1.766 1.38.002c1.093.002 1.363-.018 1.3-.1-.044-.057-.744-1.019-1.555-2.138l-1.474-2.036.458-.476c2.07-2.15 1.085-5.874-1.763-6.66-.297-.082-.975-.114-2.455-.115H6.771V16.88h2.144v-1.77zm0-5.765v-1.77h.774c.933 0 1.285.092 1.655.429.406.37.589.792.587 1.359-.001.588-.221 1.03-.68 1.364-.41.299-.773.384-1.64.387l-.696.002v-1.77z"/>
    </g>
    <rect width="134" height="72"/>
  </g>
</svg>
