<svg xmlns="http://www.w3.org/2000/svg" width="185" height="72" viewBox="0 0 185 72" xmlns:xlink="http://www.w3.org/1999/xlink">
  <title>
    logo-color-autonomoustuff
  </title>
  <defs>
    <polygon id="b" points="99.681 3.048 105.77 3.057 105.77 .303 98.369 .303"/>
    <filter id="a" width="147.3%" height="227.1%" x="-23.6%" y="-45.4%" filterUnits="objectBoundingBox">
      <feOffset dy=".5" in="SourceAlpha" result="shadowOffsetOuter1"/>
      <feGaussianBlur stdDeviation=".5" in="shadowOffsetOuter1" result="shadowBlurOuter1"/>
      <feColorMatrix values="0 0 0 0 0 0 0 0 0 0 0 0 0 0 0 0 0 0 0.8 0" in="shadowBlurOuter1"/>
    </filter>
    <polygon id="d" points="100.877 7.769 95.979 7.769 95.979 10.624 102.238 10.624"/>
    <filter id="c" width="155.9%" height="222.6%" x="-28%" y="-43.8%" filterUnits="objectBoundingBox">
      <feOffset dy=".5" in="SourceAlpha" result="shadowOffsetOuter1"/>
      <feGaussianBlur stdDeviation=".5" in="shadowOffsetOuter1" result="shadowBlurOuter1"/>
      <feColorMatrix values="0 0 0 0 0 0 0 0 0 0 0 0 0 0 0 0 0 0 0.8 0" in="shadowBlurOuter1"/>
    </filter>
    <path id="f" d="M103.706 4.173h-3.51l1.178 2.47h2.605V7.77h-2.07l1.308 2.745h.489a1.97 1.97 0 0 0 1.96-1.977V6.15a1.97 1.97 0 0 0-1.96-1.978"/>
    <filter id="e" width="164%" height="155.2%" x="-32%" y="-19.7%" filterUnits="objectBoundingBox">
      <feOffset dy=".5" in="SourceAlpha" result="shadowOffsetOuter1"/>
      <feGaussianBlur stdDeviation=".5" in="shadowOffsetOuter1" result="shadowBlurOuter1"/>
      <feColorMatrix values="0 0 0 0 0 0 0 0 0 0 0 0 0 0 0 0 0 0 0.8 0" in="shadowBlurOuter1"/>
    </filter>
    <path id="h" d="M99.122 4.173h-1.456V3.048h.912L97.304.41a1.977 1.977 0 0 0-1.325 1.87v2.386a1.97 1.97 0 0 0 1.96 1.978h2.367l-.655-1.375-.53-1.096z"/>
    <filter id="g" width="180.9%" height="156.1%" x="-40.4%" y="-20.1%" filterUnits="objectBoundingBox">
      <feOffset dy=".5" in="SourceAlpha" result="shadowOffsetOuter1"/>
      <feGaussianBlur stdDeviation=".5" in="shadowOffsetOuter1" result="shadowBlurOuter1"/>
      <feColorMatrix values="0 0 0 0 0 0 0 0 0 0 0 0 0 0 0 0 0 0 0.8 0" in="shadowBlurOuter1"/>
    </filter>
  </defs>
  <g fill="none" fill-rule="evenodd">
    <g transform="translate(0 29)">
      <g fill="#2D2D2E">
        <path d="M.374 25.612L0 25.516c.224-.422.436-.829.653-1.232l2.08-3.86c.685-1.27 1.372-2.54 2.056-3.81.404-.749.804-1.5 1.204-2.25.074-.138.174-.199.34-.199 2.164.005 4.327.002 6.49.001h.24c-.106-.202-.196-.39-.3-.569-.243-.422-.5-.838-.737-1.264-.059-.106-.128-.108-.222-.108-1.395 0-2.79 0-4.185-.002h-.545c.103-.23.174-.422.272-.599.373-.674.762-1.34 1.134-2.015.603-1.092 1.196-2.188 1.794-3.283.37-.676.733-1.356 1.113-2.027.155-.272.705-.244.855.033.45.832.899 1.666 1.347 2.499.542 1.005 1.084 2.01 1.624 3.015.451.838.899 1.679 1.35 2.518l1.961 3.65c.364.678.724 1.357 1.088 2.035l1.926 3.582 1.31 2.441c.228.426.453.854.679 1.282.025.048.043.099.068.156l-.192.102h-3.571c-.13-.07-.317-.015-.388-.222-.054-.159-.168-.297-.255-.445-.447-.757-.896-1.514-1.34-2.273-.374-.638-.74-1.28-1.112-1.92-.388-.664-.781-1.324-1.168-1.99-.08-.138-.179-.185-.342-.184-1.132.012-2.264.015-3.396.015-1.165 0-2.33-.008-3.494-.006a.218.218 0 0 0-.156.088c-.289.46-.573.923-.852 1.39-.997 1.667-1.988 3.337-2.99 5.001-.127.211-.2.492-.505.546H.374zM18.975 15.183h9.664c.005-.073.013-.126.013-.179 0-.638.003-1.276-.001-1.914a4.493 4.493 0 0 0-.038-.495c-.02-.17-.252-.326-.492-.331-.235-.005-.47-.002-.706-.002l-9.412-.001c-.087 0-.174.002-.26-.003-.263-.015-.434-.152-.557-.384-.433-.814-.874-1.623-1.313-2.434L14.338 6.6l-1.522-2.82c-.047-.086-.089-.176-.145-.255-.208-.291-.182-.575-.033-.89.287-.605.647-1.157 1.121-1.629C14.428.341 15.227-.002 16.187 0c5.152.009 10.304.004 15.456.005h.239V4.347c0 .369-.132.504-.509.514-.217.006-.434.002-.65.002l-14.658.002c-.489 0-.76.234-.77.726-.019.768-.005 1.536-.005 2.335h.259c4.098 0 8.196-.003 12.294.002.74.001 1.472.082 2.149.411.5.243.921.585 1.203 1.077.318.554.484 1.155.578 1.784.15 1.007.1 2.02.108 3.031.003.366.01.731-.002 1.096-.03.916-.213 1.797-.63 2.62-.398.781-.957 1.402-1.776 1.765a3.21 3.21 0 0 1-1.3.276c-2.028.007-4.055-.005-6.083.01-.38.003-.607-.143-.773-.464-.294-.57-.603-1.132-.907-1.697l-1.435-2.654"/>
      </g>
      <g transform="translate(35 5)">
        <path fill="#F05922" d="M149.949 14.564c-.136-.005-.272-.014-.407-.014H1.056c-.025-.036-.042-.05-.044-.065-.066-.593-.066-.593.514-.593h147.96c.155 0 .309.009.463.013v.659z"/>
        <path fill="#2D2D2E" d="M59.529 7.89v-.002c.67 0 1.342.013 2.012-.003.718-.017 1.122-.422 1.153-1.14a8.616 8.616 0 0 0-.007-1.068c-.05-.604-.484-1.039-1.085-1.046-1.378-.018-2.756-.02-4.134 0-.6.01-1.03.504-1.03 1.102 0 .394.006.787 0 1.18-.006.324.126.59.4.728.25.126.538.223.815.238.624.035 1.25.011 1.876.011m.031 1.956c-.933 0-1.867-.002-2.8 0a1.741 1.741 0 0 1-1.774-1.755 473.758 473.758 0 0 1-.007-3.594c.002-1.055.774-1.866 1.828-1.876 1.84-.017 3.68-.017 5.52 0 .983.008 1.834.863 1.839 1.842a109.29 109.29 0 0 1-.046 3.701c-.028.962-.804 1.684-1.759 1.685l-1.414-.003H59.56M39.135 4.622v.001c-.662 0-1.324-.006-1.986.002-.559.007-1.115.447-1.12.88-.005.467.009.934 0 1.4-.006.35.149.62.44.76.26.127.562.22.848.228.97.026 1.94.008 2.91.004.344-.002.69.004 1.033-.022.509-.039.961-.404.995-.822.035-.436.052-.878.025-1.314-.045-.708-.503-1.112-1.215-1.116-.643-.004-1.287-.001-1.93-.001m.019 5.221c-.952 0-1.904.008-2.856-.002-.968-.01-1.716-.77-1.722-1.747-.007-1.235-.007-2.47 0-3.705.004-.867.713-1.667 1.575-1.74.559-.048 1.123-.031 1.685-.033 1.333-.003 2.666 0 3.998 0a1.9 1.9 0 0 1 1.917 1.874c.016 1.189.016 2.378 0 3.567-.014 1.016-.81 1.782-1.823 1.785-.924.003-1.85.001-2.774.001M80.155 4.622c-.662 0-1.323-.01-1.985.003-.724.014-1.096.352-1.16 1.07-.033.38 0 .765-.013 1.148a.903.903 0 0 0 .373.78c.254.2.545.27.864.269 1.17-.002 2.338.004 3.507.004.19 0 .382.002.569-.027.557-.089.895-.44.941-.996.029-.336.028-.675.022-1.013-.012-.779-.47-1.233-1.242-1.238-.626-.003-1.25 0-1.876 0zm-.028 5.222c-.943 0-1.886.007-2.83-.002-1-.01-1.737-.77-1.74-1.784-.006-1.18.022-2.36-.017-3.54-.032-.94.749-1.88 1.763-1.891 1.885-.021 3.772-.03 5.657-.002.944.014 1.706.804 1.736 1.766a81.7 81.7 0 0 1 .038 3.702c-.013.977-.832 1.74-1.806 1.753H80.127v-.002zM46.221 4.619v5.207h-1.437V2.634c.092-.005.18-.013.27-.014l6.964-.005c.7 0 1.25.296 1.625.88.141.22.256.5.263.758.037 1.243.034 2.487.042 3.73.003.604 0 1.207 0 1.835h-1.47v-.287-3.678c0-.762-.461-1.23-1.219-1.23-1.596-.004-3.192-.003-4.787-.004h-.25M14.17 2.633h1.436c.006.098.017.185.017.272-.004 1.28-.007 2.561-.016 3.841-.004.615.445 1.109 1.064 1.139.352.017.706.012 1.06.012.952 0 1.904.015 2.855-.018a2.08 2.08 0 0 0 .865-.252c.295-.156.423-.456.421-.807-.006-1.271-.004-2.542-.005-3.814V2.65h1.472c.005.096.012.175.012.255-.002 1.664-.03 3.33 0 4.993.02 1.042-.792 1.984-1.917 1.962a150.577 150.577 0 0 0-5.467-.005c-.873.015-1.827-.742-1.811-1.818.026-1.719 0-3.439-.002-5.158 0-.072.009-.144.016-.245M85.769 2.64h1.44v.275c-.003 1.28-.005 2.56-.01 3.84a1.104 1.104 0 0 0 1.016 1.127c.154.013.308.015.462.015 1.17-.001 2.339-.007 3.508-.005.318 0 .613-.061.87-.257.266-.205.417-.466.416-.819-.005-1.28-.001-2.56 0-3.84v-.33h1.466v.32l-.012 5.13C94.923 9 94.137 9.83 93.24 9.84c-1.405.015-2.81.005-4.215.006-.508 0-1.015.004-1.523-.004-.948-.014-1.727-.727-1.743-1.675-.029-1.81-.012-3.62-.013-5.432 0-.025.012-.051.024-.096M118.472 2.622v3.7l-.002.356c-.005.74.431 1.215 1.16 1.22 1.314.009 2.628.003 3.942-.011.712-.008 1.199-.531 1.195-1.248-.005-1.078-.005-2.157-.013-3.236-.001-.237-.028-.474-.045-.749h1.488v.554l-.018 4.772c-.005 1.107-.744 1.863-1.838 1.865-1.858.003-3.716.001-5.575-.003-.94-.002-1.712-.7-1.734-1.64-.035-1.498-.019-2.998-.025-4.497-.001-.293-.013-.586.001-.877.004-.071.09-.195.143-.197.432-.016.865-.01 1.321-.01M65.18 4.618V2.651c.66 0 1.309-.003 1.958.008.053 0 .12.095.154.16.743 1.412 1.481 2.827 2.223 4.24.084.16.186.31.295.491.053-.088.093-.147.124-.21.736-1.487 1.468-2.976 2.212-4.46.053-.104.188-.231.29-.234.63-.022 1.264-.011 1.915-.011v7.183h-1.448V4.759l-.054-.02c-.038.062-.082.12-.114.185-.774 1.55-1.55 3.1-2.315 4.654-.092.185-.2.24-.406.272-.57.088-.85-.14-1.091-.667-.645-1.409-1.376-2.778-2.05-4.174-.139-.286-.329-.389-.612-.39-.351-.003-.703 0-1.081 0M106.812 4.62V2.643h9.158v1.984h-3.895v5.196h-1.422c-.004-.093-.012-.189-.012-.284.002-1.537 0-3.073.015-4.61.002-.245-.07-.31-.306-.307-1.024.009-2.049 0-3.073-.002h-.465"/>
        <polygon fill="#2D2D2E" points="24.368 4.646 24.368 2.641 33.526 2.641 33.526 4.622 29.626 4.622 29.626 9.83 28.222 9.83 28.222 4.646"/>
        <path fill="#2D2D2E" d="M3.956 9.84c.769-1.434 1.52-2.83 2.263-4.23.074-.14.166-.162.302-.162.752 0 1.504-.006 2.257-.01h.342c-.178-.291-.317-.54-.482-.77-.037-.05-.166-.045-.253-.046-.532-.004-1.063-.002-1.66-.002.14-.25.25-.443.356-.639.2-.368.388-.744.602-1.103.06-.101.191-.213.297-.221.396-.03.795-.032 1.192-.016.074.003.166.121.212.207.962 1.8 1.918 3.604 2.877 5.406.277.52.56 1.036.857 1.582-.48 0-.948.006-1.415-.007-.066-.002-.15-.086-.19-.154-.466-.804-.921-1.615-1.391-2.416a.376.376 0 0 0-.267-.163 82.327 82.327 0 0 0-2.583-.014c-.097.002-.23.099-.285.19a83.27 83.27 0 0 0-1.364 2.305c-.115.204-.241.278-.468.267-.395-.017-.792-.005-1.199-.005"/>
        <polygon fill="#2D2D2E" points="136.383 5.467 136.383 7.07 128.67 7.07 128.67 9.83 127.225 9.83 127.225 5.467"/>
        <polygon fill="#2D2D2E" points="146.613 5.464 146.613 7.065 138.892 7.065 138.892 9.825 137.44 9.825 137.44 5.464"/>
        <path fill="#2D2D2E" d="M137.415 4.595c-.106-.823.623-1.774 1.486-1.937.211-.04.432-.041.648-.041 2.203.003 4.406.01 6.61.016h.448v1.962h-9.192zM127.216 4.596c-.1-.988.801-1.981 1.81-1.982 2.383-.003 4.767.012 7.15.02.062 0 .124.011.201.018v1.944h-9.161z"/>
        <polygon fill="#2D2D2E" points="65.184 9.826 66.616 9.826 66.616 5.464 65.184 5.464"/>
        <use fill="black" filter="url(#a)" xlink:href="#b"/>
        <use fill="#FEFEFE" xlink:href="#b"/>
        <use fill="black" filter="url(#c)" xlink:href="#d"/>
        <use fill="#FEFEFE" xlink:href="#d"/>
        <g>
          <use fill="black" filter="url(#e)" xlink:href="#f"/>
          <use fill="#FEFEFE" xlink:href="#f"/>
        </g>
        <g>
          <use fill="black" filter="url(#g)" xlink:href="#h"/>
          <use fill="#FEFEFE" xlink:href="#h"/>
        </g>
      </g>
    </g>
    <rect width="185" height="72"/>
  </g>
</svg>
