<svg xmlns="http://www.w3.org/2000/svg" width="110" height="72" viewBox="0 0 110 72">
  <title>
    logo-color-samsung
  </title>
  <g fill="none" fill-rule="evenodd">
    <path fill="#034EA2" d="M84.037 46.079H79.99l-2.81-9.357h-.06l.156 9.357h-2.798V34.678h4.224l2.613 9.046h.063l-.156-9.046h2.816v11.4zm-12.756-2.385c-.202 2.151-1.88 2.849-3.97 2.849-2.092 0-3.772-.698-3.971-2.849a9.96 9.96 0 0 1-.024-.756v-8.265h2.872v8.525c0 .15.006.317.028.441.062.283.301.836 1.096.836.788 0 1.036-.553 1.09-.836.023-.125.03-.29.027-.44v-8.526h2.876v8.265a9.96 9.96 0 0 1-.024.756zm-10.678.29c-.265 1.903-1.943 2.605-3.978 2.605-2.118 0-4.096-.767-4.096-3.31l.004-.88h3.018l.003 1.105c0 .619.429 1.032 1.132 1.032.752 0 1.006-.384 1.099-.766.05-.217.087-.566-.026-.842-.579-1.477-4.579-2.154-5.068-4.483a4.016 4.016 0 0 1-.027-1.54c.297-1.861 1.936-2.53 3.936-2.53 1.596 0 3.801.39 3.801 2.872v.801h-2.814v-.704c0-.624-.385-1.03-1.043-1.03-.705 0-.949.395-1.03.764-.028.124-.043.366.01.597.319 1.335 4.592 2.048 5.07 4.437.049.242.147.884.009 1.872zM46.906 46.2l-.075-10.358h-.059l-1.9 10.358h-2.887L40.083 35.84h-.061l-.072 10.358h-2.848l.251-11.521h4.64l1.405 8.807h.06l1.406-8.807h4.638l.246 11.52h-2.842zm-15.13 0L30.26 35.745h-.064L28.638 46.2h-3.07l2.108-11.521h5.059l2.099 11.52h-3.059zm63.275-2.621c-.088.97-.53 1.643-1.17 2.095 10.597-4.84 16.848-10.233 16.05-14.864-1.493-8.702-27.297-11.418-57.636-6.062-13.264 2.34-25.198 5.833-34.305 9.752a6.7 6.7 0 0 1 1.62-.187c1.61 0 3.834.391 3.834 2.901v.81h-2.836v-.712c0-.63-.393-1.045-1.058-1.045-.711 0-.96.405-1.039.772-.026.131-.042.376.012.607.322 1.35 4.638 2.07 5.118 4.48.047.247.15.898.012 1.894-.27 1.92-1.964 2.632-4.02 2.632-2.14 0-4.136-.775-4.136-3.344l.003-.892h3.05v1.115c0 .633.432 1.047 1.145 1.047.757 0 1.013-.39 1.109-.774.052-.217.085-.575-.026-.854-.585-1.492-4.624-2.173-5.121-4.528a4.06 4.06 0 0 1-.026-1.557c.133-.824.537-1.405 1.109-1.81C5.774 39.96-.743 45.47.068 50.189c1.496 8.703 27.305 11.42 57.643 6.067 13.553-2.393 25.707-5.99 34.884-10.013a6.47 6.47 0 0 1-1.544.179c-2.02 0-3.811-.748-4.004-2.844a9.443 9.443 0 0 1-.04-.76l.002-4.85c0-.205.025-.568.047-.76.252-2.153 1.976-2.846 3.995-2.846 2.017 0 3.782.69 3.991 2.846.038.367.026.76.026.76v.384H92.2v-.646a2.691 2.691 0 0 0-.037-.438c-.049-.254-.267-.84-1.134-.84-.829 0-1.072.554-1.132.84a2.618 2.618 0 0 0-.048.544v5.269c-.003.145.006.306.029.438.05.309.336.835 1.158.835.825 0 1.112-.528 1.165-.835.021-.132.027-.293.026-.438v-1.672h-1.168v-1.683h4.033v3.093a8.419 8.419 0 0 1-.041.759z"/>
    <rect width="110" height="72"/>
  </g>
</svg>
