<svg xmlns="http://www.w3.org/2000/svg" width="105" height="72" viewBox="0 0 105 72">
  <title>
    logo-color-nod
  </title>
  <defs>
    <linearGradient id="a" x1="65.689%" y1="62.657%" y2="100%">
      <stop stop-color="#E9643B" offset="0%"/>
      <stop stop-color="#007FBD" offset="100%"/>
    </linearGradient>
  </defs>
  <g fill="none" fill-rule="evenodd">
    <g transform="translate(0 20.385)">
      <path fill="url(#a)" d="M22.829 0c-1.923.01-4.222.895-7.064 2.703-3.328 2.115-6.638 5.4-8.964 8.873-4.078 1.845-6.583 4.24-6.788 6.551-.114 1.289.512 2.416 1.763 3.174.545.33 1.22.596 2.021.78.057.211.123.416.2.615 1.921 4.96 9.436 4.87 15.402 3.923 6.268-.996 11.041-1.196 14.673-.957 1.567 5.665 3.185 9.59 7.246 10.266.518.086.988.125 1.416.125 2.276 0 3.343-1.108 3.842-2.132a4.2 4.2 0 0 0 .136-.312l.01-.026c.74-1.933.326-4.92-1.159-8.287-1.527-3.463-3.936-6.805-6.607-9.17-2.514-2.225-5.045-3.423-7.426-3.562l-.07-.234C29.655 6.334 28.23 1.598 24.76.326A5.465 5.465 0 0 0 22.89 0h-.061zm-6.477 3.604c3.502-2.226 6.128-2.969 8.03-2.272 2.953 1.082 4.31 5.565 6.02 11.247a7.576 7.576 0 0 0-2.733.771c-4.078-2.511-8.137-3.77-12.156-3.77-2.286 0-4.561.407-6.817 1.223 2.133-2.82 4.878-5.433 7.656-7.199zM4.715 21.16c-.354-2.492.832-5.668 2.846-8.745.33-.143.673-.285 1.032-.425 5.875-2.285 11.902-1.617 18.005 1.979-5.666 3.456-11.064 5.8-15.634 6.788-1.621.35-3.129.525-4.458.524-.64 0-1.24-.04-1.79-.12zm-2.371-.773c-.624-.378-1.347-1.06-1.25-2.165.118-1.321 1.438-3.179 4.645-4.923-1.6 2.833-2.331 5.453-2.143 7.622a5.25 5.25 0 0 1-1.252-.534zm26.41-6.338a6.393 6.393 0 0 1 1.967-.41c.16.527.323 1.064.491 1.606.083.266.164.53.243.794a38.687 38.687 0 0 0-2.7-1.99zm16.857 14.594c-1.234-1.41-3.256-2.498-5.922-3.2-.962-1.716-1.983-3.466-3.44-4.983a53.735 53.735 0 0 0-3.295-3.16c-.222-.779-.455-1.57-.704-2.37l-.384-1.25c2.597.304 4.93 1.975 6.365 3.246 3.547 3.14 6.379 7.879 7.384 11.72l-.004-.003zM27.564 14.637l.062-.037a38.47 38.47 0 0 1 4.37 3.294c.449 1.592.848 3.123 1.216 4.532.192.738.379 1.455.564 2.149-4.09-.232-8.966.098-14.55.985-7.985 1.269-12.9.146-14.215-3.247l-.012-.03c.486.054 1.007.082 1.562.082 4.653 0 11.737-2.004 21.003-7.728zm9.5 10.27c-.686-.104-1.4-.187-2.143-.251-.216-.8-.433-1.633-.658-2.497-.241-.924-.496-1.9-.769-2.911a54.726 54.726 0 0 1 1.968 1.95c1.133 1.178 2.003 2.54 2.797 3.916a27.026 27.026 0 0 0-1.195-.207zm4.435 9.963c-3.356-.559-4.847-4.04-6.275-9.114 1.438.14 2.677.353 3.742.61 1.072 1.919 2.183 3.901 3.868 5.57.763.754 1.865 1.49 2.792 1.46l-.029.06c-.494 1.014-1.454 1.525-2.864 1.525-.38 0-.79-.037-1.234-.111zm2.103-3.692c-1.32-1.308-2.255-2.804-3.16-4.394 2.458.808 3.725 1.847 4.348 2.56.544.621.888 1.292 1.026 1.99a.607.607 0 0 0 .004.043c.088.554.01.86-.107.92a.345.345 0 0 1-.152.028c-.375 0-1.154-.35-1.959-1.147z"/>
      <g fill="#807D81" transform="translate(53.544 6.736)">
        <path d="M7.338 6.305c-1.945 0-3.811.79-5.138 2.171V7.34a.71.71 0 0 0-.714-.706H.82a.711.711 0 0 0-.714.706v13.812c0 .39.32.706.714.706h.667a.71.71 0 0 0 .714-.706v-7.647c0-2.795 2.328-5.157 5.083-5.157 3.05 0 5.098 2.029 5.098 5.047v7.757c0 .39.32.706.715.706h.667a.71.71 0 0 0 .714-.706V13.34c0-4.142-2.936-7.035-7.139-7.035M24.565 8.349c3.3 0 5.884 2.578 5.884 5.869v.055c0 3.347-2.505 5.87-5.828 5.87-3.3 0-5.885-2.579-5.885-5.87v-.055c0-3.346 2.506-5.87 5.829-5.87m.028-2.043c-4.55 0-7.98 3.414-7.98 7.94v.056c0 4.496 3.43 7.886 7.98 7.886 4.549 0 7.98-3.414 7.98-7.941v-.054c0-4.496-3.431-7.887-7.98-7.887M48.342 14.218v.055c0 3.347-2.506 5.87-5.829 5.87-3.3 0-5.884-2.579-5.884-5.87v-.055c0-3.346 2.505-5.87 5.828-5.87 3.3 0 5.885 2.579 5.885 5.87M49.75.319h-.667a.71.71 0 0 0-.715.706v7.73c-1.488-1.58-3.573-2.45-5.884-2.45-4.55 0-7.98 3.414-7.98 7.94v.056c0 4.496 3.43 7.886 7.98 7.886 2.31 0 4.396-.875 5.884-2.468v1.433c0 .389.32.706.715.706h.667a.711.711 0 0 0 .714-.706V1.025A.71.71 0 0 0 49.75.32"/>
      </g>
    </g>
    <rect width="104.663" height="71.448"/>
  </g>
</svg>
