<svg xmlns="http://www.w3.org/2000/svg" width="120" height="72" viewBox="0 0 120 72" xmlns:xlink="http://www.w3.org/1999/xlink">
  <title>
    logo-color-telefonica
  </title>
  <defs>
    <polygon id="a" points="28.938 .151 .156 .151 .156 24.703 28.938 24.703 28.938 .151"/>
  </defs>
  <g fill="none" fill-rule="evenodd">
    <g transform="translate(0 24)">
      <g transform="translate(9.111 .063)">
        <mask id="b" fill="white">
          <use xlink:href="#a"/>
        </mask>
        <path fill="#003145" d="M25.491.562C26.656.571 27.8.37 28.938.151c-.78 1.42-2.567 1.866-4.111 1.98-2.005.072-4.011.05-6.018.044-1.349 1.01-2.158 2.496-2.836 3.968-1.99 4.382-3.5 8.943-5.277 13.404-.627 1.61-1.385 3.315-2.923 4.318-1.12.7-2.573 1.08-3.877.668.588-.549 1.19-1.108 1.575-1.814 1.193-2.103 1.918-4.407 2.811-6.634 1.151-2.887 2.271-5.788 3.54-8.632.996-2.206 2.742-4.051 4.894-5.274-3.512.009-7.205-.213-10.478 1.238-1.611.695-3.067 1.997-3.41 3.718-.246.903-.015 1.824.232 2.699-.76-.126-1.567-.322-2.091-.907-.998-.988-1-2.562-.422-3.754.71-1.524 2.186-2.571 3.74-3.232C6.75.897 9.48.588 12.15.565c4.447-.005 8.893.002 13.34-.003" mask="url(#b)"/>
      </g>
      <path fill="#003145" d="M46.462 9.43c-1.242 1.473-2.01 3.261-2.575 5.064 1.426-.809 2.769-1.784 3.849-2.998.548-.635 1.053-1.352 1.23-2.171.07-.386.118-.95-.37-1.095-.896-.074-1.594.602-2.134 1.2m11.982-6.857C60.842.736 64.058.27 67.038.523c1.029.123 2.162.37 2.864 1.164.478.544.46 1.353.067 1.933-.66 1.026-1.722 1.784-2.887 2.212.38-.795 1.038-1.536.982-2.461.04-.78-.59-1.404-1.31-1.656-1.908-.71-4.148-.192-5.69 1.045-1.5 1.184-2.428 2.868-3.213 4.54 2.818-.045 5.644.124 8.456-.14-.218.362-.312.878-.807.974-1.816.595-2.92 2.236-3.809 3.768-1.013 1.894-1.858 4.004-1.675 6.17a1.039 1.039 0 0 0 1.257.95c1.034-.217 1.751-1.055 2.367-1.823 1.778-2.436 2.749-5.423 2.676-8.401 1.19-.36 2.43-.531 3.633-.85 1.178-.266 2.331-.665 3.54-.782.602-.066 1.398.205 1.407.891-.056 1.513-.836 2.883-1.385 4.27 1.131-1.63 2.382-3.254 4.1-4.355.985-.63 2.218-1.045 3.405-.776.63.134 1.182.65 1.213 1.292.022.963-.376 1.876-.753 2.748-1.256 2.675-2.832 5.25-3.538 8.132-.247.911-.134 1.854.048 2.765-.908-.09-1.81-.486-2.34-1.224-.722-.984-.668-2.29-.355-3.403.702-2.364 2.007-4.5 3.04-6.735.245-.51.376-1.06.442-1.617-.524-.013-1.047.107-1.424.474-3.36 2.886-5.196 6.93-7.078 10.769-.998.012-1.998.012-2.993.002 1.438-3.332 2.869-6.669 4.162-10.055.16-.488.404-1.06.08-1.536-.867-.004-1.711.214-2.558.352-.39 3.166-1.829 6.215-4.004 8.62-1.396 1.51-3.282 2.9-5.49 2.843-1.07.03-2.23-.474-2.635-1.48-.526-1.323-.233-2.789.158-4.107.86-2.612 2.52-5.084 5.002-6.522-1.573.169-3.157.14-4.737.14-1.412 3.53-2.674 7.11-4.023 10.66-.593 1.467-1.217 2.988-2.382 4.131-1.002 1.02-2.564 1.472-3.991 1.197.658-.702 1.316-1.423 1.709-2.3.827-1.766 1.524-3.586 2.231-5.401-1.751 1.704-3.878 3.25-6.407 3.611-1.264.167-2.78.141-3.69-.855-.959-1.052-.84-2.569-.612-3.853.529-2.38 1.833-4.58 3.571-6.34 1.45-1.372 3.316-2.494 5.387-2.643.827-.047 1.944.12 2.204 1.013.278 1.052-.282 2.103-.909 2.935-1.733 2.179-4.235 3.616-6.746 4.835-.145.861-.396 1.775-.102 2.632.275.664 1.126.807 1.78.67 1.966-.316 3.57-1.596 4.93-2.92.747-.79 1.607-1.551 1.967-2.588.6-1.607 1.231-3.202 1.874-4.794-.67.07-1.338.152-2.01.188.545-.92 1.65-1.148 2.579-1.543 1.026-1.734 2.13-3.502 3.828-4.716M89.742 1.92c.682-.158 1.422.348 1.436 1.032.16 1.253-1.334 2.644-2.596 1.929-1.098-.924-.142-2.77 1.16-2.961M30.722 9.265c-1.324 1.508-2.144 3.364-2.71 5.246 1.89-1.152 3.824-2.5 4.826-4.484.21-.544.55-1.321-.016-1.771-.846-.169-1.569.456-2.1 1.009m10.336-6.692c.995-.273 2.03-.386 3.044-.593-1.802 4.315-4.026 8.456-5.802 12.785-.896 2.348-2.124 4.808-1.618 7.372-1.335-.09-2.495-1.109-2.775-2.355-.227-.842-.058-1.717.113-2.553-1.493 1.49-3.318 2.782-5.444 3.268-1.258.23-2.787.256-3.736-.708-.964-1.044-.9-2.575-.642-3.86.524-2.485 1.898-4.776 3.74-6.579 1.446-1.314 3.289-2.391 5.322-2.491.813-.045 1.878.179 2.116 1.047.255 1.186-.414 2.317-1.158 3.21-1.702 2.019-4.102 3.305-6.436 4.528-.298.783-.358 1.65-.242 2.474.069.58.7.926 1.269.87 1.653-.117 3.022-1.16 4.173-2.22 1.031-1.03 2.07-2.116 2.642-3.456a377.158 377.158 0 0 1 4.6-9.86c.19-.35.398-.773.834-.88M103.958 10.434c-1.656 1.971-2.922 4.297-3.476 6.782-.082.505-.28 1.52.554 1.476 1.153-.145 1.993-1.039 2.693-1.858 2.064-2.551 3.06-5.687 4.589-8.53-1.767-.191-3.311.867-4.36 2.13m-10.72-1.973c1.65-1.167 3.789-1.737 5.817-1.33.534.122 1.127.397 1.287.948.205.567-.1 1.173-.49 1.593-.732.762-1.699 1.36-2.78 1.513.448-.774 1.23-1.525 1.09-2.483-.12-.561-.857-.613-1.32-.453-1.08.372-1.835 1.27-2.504 2.121-1.425 1.967-2.454 4.254-2.696 6.652-.075.665.003 1.604.791 1.839 1.054.194 2.05-.367 2.867-.941 1.033-.787 2.089-1.668 2.564-2.887 1.331-2.944 3.4-5.832 6.576-7.13 2.247-.882 4.929-1.172 7.187-.168-1.432 2.932-2.725 5.931-3.738 9.018-.493 1.75-.927 3.588-.567 5.402-.958-.094-1.942-.519-2.393-1.376-.638-1.101-.287-2.392-.022-3.544-1.127 1.389-2.467 2.77-4.276 3.292-.978.292-2.218.286-2.953-.493-.571-.557-.585-1.382-.636-2.11-1.271 1.244-2.824 2.325-4.635 2.675-1.096.216-2.345.177-3.274-.486-.546-.378-.778-1.005-1.024-1.574-1.29 1.102-2.838 2.103-4.62 2.158-.925.05-2.02-.34-2.287-1.277-.284-1.097.133-2.21.487-3.245.898-2.33 2.078-4.546 3.153-6.801.32-.587.525-1.393 1.28-1.592 1.036-.277 2.109-.399 3.171-.567-1.255 2.52-2.51 5.037-3.65 7.605-.456 1.069-.976 2.138-1.148 3.292-.148.537.485.873.963.715.873-.229 1.58-.818 2.209-1.415.664-.559.55-1.491.837-2.23.845-2.608 2.443-5.066 4.734-6.721M5.26 30.658c13.929-.34 27.867-.36 41.8-.454 18.589-.05 37.176.014 55.764.228 5.332.12 10.667.122 15.992.388.373.026.748.07 1.12.135-1.176.245-2.38.226-3.574.273-11.478.347-22.96.384-34.442.478-1.4.134-2.807.087-4.211.091-12.813.083-25.627.056-38.44-.006-1.629-.154-3.262-.083-4.893-.113-10.156-.077-20.31-.139-30.46-.438-1.307-.066-2.636.005-3.916-.302 1.74-.244 3.507-.171 5.26-.28"/>
    </g>
    <rect width="120" height="72"/>
  </g>
</svg>
