<svg xmlns="http://www.w3.org/2000/svg" width="87" height="72" viewBox="0 0 87 72" xmlns:xlink="http://www.w3.org/1999/xlink">
  <title>
    logo-color-auro
  </title>
  <defs>
    <polygon id="a" points="18.077 .07 .042 .07 .042 17.873 18.077 17.873 18.077 .07"/>
    <polygon id="c" points="18.123 .07 .089 .07 .089 17.873 18.123 17.873"/>
    <polygon id="e" points="2.352 6.187 0 6.187 0 .051 2.352 .051 2.352 6.187"/>
    <polygon id="g" points=".084 6.187 2.436 6.187 2.436 .051 .084 .051"/>
  </defs>
  <g fill="none" fill-rule="evenodd">
    <g transform="translate(0 31)">
      <path fill="#5A5A5A" d="M47.758 10.152v-7.74h9.41c2.161 0 3.92 1.736 3.92 3.87 0 2.134-1.759 3.87-3.92 3.87h-9.41zm13.027 1.14c1.559-1.094 2.605-2.847 2.654-4.86C63.522 2.948 60.677.09 57.168.09H46.347c-.52 0-.941.416-.941.928v15.713c0 .642.526 1.161 1.176 1.161.65 0 1.176-.52 1.176-1.16v-4.258h9.41c2.165 0 3.92 1.733 3.92 3.87v.387c0 .642.527 1.161 1.176 1.161.65 0 1.176-.52 1.176-1.16v-.388c0-2.088-1.05-3.931-2.655-5.053z"/>
      <g transform="translate(67.486 .02)">
        <mask id="b" fill="white">
          <use xlink:href="#a"/>
        </mask>
        <path fill="#5A5A5A" d="M9.06 15.551c-3.676 0-6.666-2.951-6.666-6.58 0-3.627 2.99-6.578 6.665-6.578s6.665 2.95 6.665 6.579c0 3.628-2.99 6.579-6.665 6.579m0-15.48C4.087.07.042 4.062.042 8.97c0 4.909 4.045 8.902 9.017 8.902 4.973 0 9.018-3.993 9.018-8.901 0-4.909-4.045-8.902-9.018-8.902" mask="url(#b)"/>
      </g>
      <g transform="translate(22.526 .02)">
        <mask id="d" fill="white">
          <use xlink:href="#c"/>
        </mask>
        <path fill="#5A5A5A" d="M16.947.07c-.65 0-1.176.52-1.176 1.161v7.74c0 3.681-3.077 6.666-6.826 6.578-3.638-.085-6.504-3.108-6.504-6.7V1.23c0-.64-.526-1.16-1.176-1.16C.615.07.089.59.089 1.23v7.591c0 4.875 3.906 8.957 8.843 9.05 5.051.094 9.191-3.935 9.191-8.9v-7.74c0-.642-.526-1.162-1.176-1.162" mask="url(#d)"/>
      </g>
      <g transform="translate(0 11.765)">
        <mask id="f" fill="white">
          <use xlink:href="#e"/>
        </mask>
        <path fill="#5A5A5A" d="M.005.051H0V5.42c0 .424.348.768.778.768h.796c.43 0 .778-.344.778-.768V2.545C1.087 2.36.102 1.328.005.051" mask="url(#f)"/>
      </g>
      <g transform="translate(15.532 11.765)">
        <mask id="h" fill="white">
          <use xlink:href="#g"/>
        </mask>
        <path fill="#5A5A5A" d="M2.432.051h.004V5.42a.773.773 0 0 1-.777.768H.862a.773.773 0 0 1-.778-.768V2.545C1.35 2.36 2.334 1.328 2.432.051" mask="url(#h)"/>
      </g>
      <path fill="#2896E6" d="M14.779 13.015a.966.966 0 0 1-.972-.96c0-.53.435-.96.972-.96.537 0 .972.43.972.96s-.435.96-.972.96m-5.795-2.918c-2.713 0-5.417-.074-6.08-.22a.7.7 0 0 1-.552-.682V8.99c0-3.617 2.972-6.56 6.632-6.578 3.66.018 6.632 2.961 6.632 6.578v.204a.7.7 0 0 1-.552.681c-.662.147-3.367.22-6.08.221M3.19 13.015a.966.966 0 0 1-.972-.96c0-.53.435-.96.972-.96.537 0 .972.43.972.96s-.435.96-.972.96M8.984.093C4.027.11 0 4.093 0 8.99v2.825h.005c.107 1.413 1.3 2.528 2.759 2.528h.433c.285 0 .558-.051.81-.144 1.593-.587 3.25-.993 4.95-.993h.055c1.7 0 3.356.406 4.949.993.252.093.525.144.81.144h.433c1.46 0 2.652-1.115 2.76-2.528h.004V8.991c0-4.897-4.027-8.88-8.984-8.898"/>
    </g>
    <rect width="87" height="72"/>
  </g>
</svg>
