<svg xmlns="http://www.w3.org/2000/svg" width="200" height="72" viewBox="0 0 200 72">
  <title>
    logo-color-blitz
  </title>
  <g fill="none" fill-rule="evenodd">
    <g transform="translate(0 25)">
      <path fill="#2E3D49" d="M9.517 8.375H8.436v6.715a3.23 3.23 0 0 1-1.043 2.425 3.918 3.918 0 0 1-5.254 0 3.21 3.21 0 0 1-1.043-2.425V8.375H0v6.728a4.181 4.181 0 0 0 1.288 3.125c.901.855 2.06 1.283 3.477 1.283 1.416 0 2.575-.428 3.464-1.283a4.161 4.161 0 0 0 1.287-3.125V8.375zM23.502 10.488c.824.804 1.236 1.919 1.236 3.358s-.412 2.567-1.223 3.37c-.786.778-1.868 1.154-3.233 1.154h-2.33V9.335h2.33c1.365 0 2.434.388 3.22 1.153zm2.343 3.358c0-1.711-.502-3.046-1.506-4.032-.979-.959-2.292-1.439-3.954-1.439h-3.502v10.967h3.502c1.662 0 2.975-.48 3.954-1.438 1.004-.986 1.506-2.334 1.506-4.058zM54.522 8.894a6.006 6.006 0 0 0-2.936-.713 5.177 5.177 0 0 0-3.888 1.607 5.473 5.473 0 0 0-1.571 3.98c0 1.62.515 2.982 1.545 4.07a5.194 5.194 0 0 0 3.953 1.673 5.91 5.91 0 0 0 3.078-.843 4.397 4.397 0 0 0 1.081-.855l-.618-.765a4.27 4.27 0 0 1-.94.739 5.01 5.01 0 0 1-2.588.726 4.104 4.104 0 0 1-3.168-1.387 4.835 4.835 0 0 1-1.236-3.37 4.602 4.602 0 0 1 1.236-3.267 4.126 4.126 0 0 1 3.142-1.323 5.16 5.16 0 0 1 2.42.61c.325.159.624.364.89.609l.566-.791a3.745 3.745 0 0 0-.966-.7"/>
      <polygon fill="#2E3D49" points="62.854 19.343 63.922 19.343 63.922 8.375 62.854 8.375"/>
      <polygon fill="#2E3D49" points="70.541 8.375 70.541 9.335 74.456 9.335 74.456 19.343 75.525 19.343 75.525 9.335 79.414 9.335 79.414 8.375"/>
      <polygon fill="#2E3D49" points="93.655 8.375 92.445 8.375 88.943 13.664 88.904 13.664 85.414 8.375 84.191 8.375 88.376 14.624 88.376 19.33 89.458 19.33 89.458 14.624"/>
      <path fill="#2E3D49" d="M35.915 9.866h.039l1.828 4.524-4.017.83 2.15-5.354zm.605-1.49h-1.172l-4.416 10.966h1.172l1.171-2.903 4.92-1.012 1.596 3.928h1.172L36.52 8.375z"/>
      <path fill="#F95C3C" d="M113.721 12.102h10.484l-6.482 3.756H107.24l6.482-3.756zm3.833 5.26l5.444 7.037-15.15-7.038h9.706zm-3.693-6.763l-5.394-7.043 15.1 7.043h-9.706zm13.493 1.413l-.06-1.333L104.4 0l-.275.346 8.264 10.794-8.319 4.819.06 1.332 22.964 10.664.28-.35-8.334-10.775 8.314-4.818z"/>
      <path fill="#2E3D49" d="M199.678 10.498V8.347h-8.202v2.151h5.305l-5.498 6.612v2.23h8.589v-2.23h-5.59l5.396-6.612zm-14.64 0V8.347h-8.577v2.151h3.104v8.841h2.395V10.5h3.077zm-17.784 8.841h2.396V8.347h-2.396v10.992zm-6.889-.013v-2.23h-4.417V8.335h-2.395v10.992h6.812zm-20.062-2.034V14.79l2.434.052.63.182c.19.075.355.201.477.365.132.18.2.401.193.626.008.408-.192.792-.528 1.017a1.387 1.387 0 0 1-.515.209l-.553.065h-2.138v-.013zm2.704-6.676c.152.088.284.208.387.352.098.17.147.364.141.56.008.196-.036.39-.129.561a1.33 1.33 0 0 1-.334.379 1.47 1.47 0 0 1-.49.182l-.54.065h-1.726v-2.347h1.622l.567.065.502.183zm2.923.521a2.56 2.56 0 0 0-.36-1.447 2.451 2.451 0 0 0-.915-.835 3.978 3.978 0 0 0-1.274-.417 10.563 10.563 0 0 0-1.43-.104h-4.043v10.992h4.442a6.988 6.988 0 0 0 1.456-.156c.46-.095.9-.271 1.3-.522.39-.229.716-.551.953-.939.132-.198.229-.419.283-.652.064-.26.094-.527.09-.795a2.877 2.877 0 0 0-.167-1.004 2.7 2.7 0 0 0-.49-.809 2.859 2.859 0 0 0-.759-.573 3.347 3.347 0 0 0-.966-.3v-.026c.525-.16.994-.467 1.352-.887.369-.418.558-.966.528-1.526z"/>
    </g>
    <rect width="200" height="72"/>
  </g>
</svg>
