<svg xmlns="http://www.w3.org/2000/svg" width="97" height="72" viewBox="0 0 97 72">
  <title>
    logo-color-amazon-alexa
  </title>
  <g fill="none" fill-rule="evenodd">
    <g transform="translate(0 12)">
      <path fill="#231F20" d="M3.411 40.61c-1.6 0-2.4.613-2.4 1.838 0 1.066.566 1.6 1.698 1.6a4.4 4.4 0 0 0 1.405-.256 7.005 7.005 0 0 0 1.526-.749v-2.126a8.768 8.768 0 0 0-2.229-.307m.24-4.679c1.978 0 2.966.846 2.966 2.535v6.023c0 .17-.086.256-.257.256H6c-.171 0-.263-.085-.274-.256l-.069-.731c-.983.782-2.011 1.174-3.085 1.174-.79 0-1.415-.224-1.878-.672C.231 43.812 0 43.214 0 42.465c0-.828.283-1.48.849-1.957.565-.476 1.346-.714 2.34-.714.366 0 .765.034 1.2.102.434.068.851.164 1.251.29v-1.43c0-.692-.166-1.188-.497-1.49-.332-.3-.88-.45-1.646-.45-.708 0-1.457.114-2.245.34a3.182 3.182 0 0 0-.3.094.541.541 0 0 1-.18.042c-.138 0-.206-.073-.206-.22v-.273c0-.17.074-.283.223-.34a8.148 8.148 0 0 1 2.863-.528M18.823 35.931c.789 0 1.389.219 1.8.656.411.436.617 1.08.617 1.93v5.972c0 .17-.086.256-.257.256h-.463c-.171 0-.257-.085-.257-.256v-5.563c0-.749-.129-1.287-.386-1.617-.257-.329-.677-.493-1.26-.493-1.097 0-2.131.357-3.103 1.072.035.272.052.539.052.8v5.801c0 .17-.086.256-.258.256h-.462c-.171 0-.257-.085-.257-.256v-5.563c0-.749-.13-1.287-.386-1.617-.257-.329-.677-.493-1.26-.493-1.063 0-2.08.346-3.051 1.038v6.635c0 .17-.086.256-.258.256h-.462c-.172 0-.258-.085-.258-.256v-8.047c0-.17.086-.256.258-.256h.342c.172 0 .269.086.292.256l.068.68a6.77 6.77 0 0 1 1.612-.876 4.715 4.715 0 0 1 1.663-.315c1.074 0 1.794.437 2.16 1.31a6.334 6.334 0 0 1 1.722-.978 5.15 5.15 0 0 1 1.792-.332M26.4 40.61c-1.6 0-2.4.613-2.4 1.838 0 1.066.566 1.6 1.697 1.6.434 0 .903-.086 1.406-.256a7.006 7.006 0 0 0 1.526-.749v-2.126a8.77 8.77 0 0 0-2.23-.307m.241-4.679c1.977 0 2.966.846 2.966 2.535v6.023c0 .17-.086.256-.257.256h-.36c-.172 0-.263-.085-.275-.256l-.068-.731c-.983.782-2.012 1.174-3.086 1.174-.789 0-1.414-.224-1.877-.672-.463-.448-.695-1.046-.695-1.795 0-.828.283-1.48.849-1.957.566-.476 1.346-.714 2.34-.714.366 0 .766.034 1.2.102.434.068.852.164 1.252.29v-1.43c0-.692-.166-1.188-.498-1.49-.331-.3-.88-.45-1.645-.45-.709 0-1.458.114-2.246.34a3.178 3.178 0 0 0-.3.094.541.541 0 0 1-.18.042c-.137 0-.206-.073-.206-.22v-.273c0-.17.074-.283.223-.34a8.145 8.145 0 0 1 2.863-.528M37.8 44.15v.34c0 .17-.086.255-.257.255h-6.034c-.172 0-.258-.085-.258-.256v-.357c0-.113.015-.204.043-.272a.92.92 0 0 1 .163-.238l5.212-6.585h-4.99c-.17 0-.256-.085-.256-.255v-.34c0-.17.086-.256.257-.256h5.828c.172 0 .258.085.258.256v.357c0 .091-.015.176-.043.255a.88.88 0 0 1-.18.272l-5.229 6.568h5.229c.171 0 .257.085.257.255M42.84 44.115c1.977 0 2.965-1.219 2.965-3.658 0-2.427-.988-3.64-2.965-3.64-1.977 0-2.966 1.213-2.966 3.64 0 2.439.989 3.658 2.966 3.658m0 .885c-1.246 0-2.22-.394-2.923-1.182-.703-.789-1.054-1.909-1.054-3.36 0-1.453.351-2.57 1.054-3.353.703-.782 1.677-1.174 2.923-1.174 1.245 0 2.22.392 2.922 1.174.703.783 1.055 1.9 1.055 3.352s-.352 2.572-1.055 3.36C45.06 44.607 44.085 45 42.84 45M53.228 35.931c.846 0 1.486.219 1.92.656.435.436.652 1.08.652 1.93v5.972c0 .17-.086.256-.257.256h-.463c-.172 0-.257-.085-.257-.256v-5.563c0-.749-.144-1.287-.43-1.617-.285-.329-.742-.493-1.37-.493-.606 0-1.183.094-1.732.28a6.923 6.923 0 0 0-1.611.809v6.584c0 .17-.086.256-.257.256h-.463c-.172 0-.257-.085-.257-.256v-8.047c0-.17.085-.256.257-.256h.343c.17 0 .268.086.29.256l.07.731a6.794 6.794 0 0 1 1.748-.919 5.49 5.49 0 0 1 1.817-.323M93.739 40.61c-1.6 0-2.4.613-2.4 1.838 0 1.066.566 1.6 1.697 1.6a4.4 4.4 0 0 0 1.406-.256 7.008 7.008 0 0 0 1.526-.749v-2.126a8.77 8.77 0 0 0-2.23-.307zm.24-4.679c1.977 0 2.965.846 2.965 2.535v6.023c0 .17-.085.256-.256.256h-.36c-.172 0-.264-.085-.275-.256l-.068-.731c-.984.782-2.012 1.174-3.086 1.174-.789 0-1.414-.224-1.877-.672-.463-.448-.695-1.046-.695-1.795 0-.828.283-1.48.849-1.957.566-.476 1.346-.714 2.34-.714.366 0 .766.034 1.2.102a8.74 8.74 0 0 1 1.252.29v-1.43c0-.692-.166-1.188-.498-1.49-.331-.3-.88-.45-1.646-.45-.708 0-1.457.114-2.245.34a3.165 3.165 0 0 0-.3.094.543.543 0 0 1-.18.042c-.137 0-.206-.073-.206-.22v-.273c0-.17.074-.283.223-.34a8.145 8.145 0 0 1 2.863-.528zm-8.326 5.037l-2.486 3.59a.425.425 0 0 1-.36.187h-.48c-.149 0-.223-.062-.223-.188 0-.045.04-.119.12-.22l2.932-4.05-2.675-3.71c-.069-.101-.103-.17-.103-.203 0-.125.074-.188.223-.188h.532c.148 0 .268.063.36.188l2.246 3.165 2.245-3.165a.41.41 0 0 1 .343-.188h.463c.148 0 .223.063.223.188 0 .045-.035.119-.103.22l-2.64 3.625 2.931 4.117c.069.102.103.176.103.221 0 .126-.074.188-.223.188h-.531a.41.41 0 0 1-.343-.188l-2.554-3.59zm-7.918-4.169c-.856 0-1.534.25-2.03.749-.498.499-.798 1.23-.9 2.194.445.114.888.2 1.328.256.44.057.883.085 1.328.085.857 0 1.486-.125 1.886-.375.4-.249.6-.646.6-1.19 0-1.146-.737-1.719-2.212-1.719zm2.178 7.027c.148-.045.257-.082.325-.11a.5.5 0 0 1 .19-.043c.136 0 .205.074.205.221v.238c0 .182-.063.3-.189.357-.823.34-1.697.51-2.623.51-1.314 0-2.317-.376-3.008-1.13-.692-.755-1.037-1.858-1.037-3.31 0-.714.09-1.358.274-1.93.182-.573.448-1.061.797-1.464a3.397 3.397 0 0 1 1.277-.919c.503-.21 1.069-.315 1.697-.315.995 0 1.763.227 2.306.68.543.455.814 1.09.814 1.907 0 .805-.288 1.397-.865 1.778-.577.38-1.472.57-2.683.57-.435 0-.872-.026-1.312-.077a8.118 8.118 0 0 1-1.311-.264c0 1.225.26 2.13.78 2.714.52.584 1.3.876 2.34.876.674 0 1.348-.096 2.023-.29zm-9.336-11.417c0-.17.085-.255.257-.255h.463c.171 0 .257.085.257.255v10.856c0 .25.048.425.146.527.097.102.271.153.523.153.068 0 .145-.005.231-.017a1.66 1.66 0 0 1 .214-.017c.16 0 .24.08.24.238v.323c0 .137-.074.222-.223.256a1.4 1.4 0 0 1-.3.05 4.277 4.277 0 0 1-.351.018c-.457 0-.814-.133-1.072-.4-.257-.266-.385-.638-.385-1.114V32.409zm-5.469 8.201c-1.6 0-2.4.613-2.4 1.838 0 1.066.566 1.6 1.697 1.6.434 0 .903-.086 1.406-.256a7.003 7.003 0 0 0 1.526-.749v-2.126a8.769 8.769 0 0 0-2.229-.307zm.24-4.679c1.977 0 2.966.846 2.966 2.535v6.023c0 .17-.086.256-.257.256h-.36c-.172 0-.263-.085-.274-.256l-.069-.731c-.983.782-2.012 1.174-3.086 1.174-.789 0-1.414-.224-1.877-.672-.463-.448-.694-1.046-.694-1.795 0-.828.283-1.48.848-1.957.566-.476 1.346-.714 2.34-.714.366 0 .766.034 1.2.102.435.068.852.164 1.252.29v-1.43c0-.692-.166-1.188-.497-1.49-.332-.3-.88-.45-1.646-.45-.709 0-1.457.114-2.246.34a3.139 3.139 0 0 0-.3.094.543.543 0 0 1-.18.042c-.137 0-.206-.073-.206-.22v-.273c0-.17.075-.283.223-.34a8.147 8.147 0 0 1 2.863-.528z"/>
      <path fill="#31C4F3" d="M48.472 0C40.72 0 34.433 6.238 34.433 13.934c0 7.065 5.299 12.902 12.167 13.81v-2.808c0-.791-.503-1.503-1.259-1.755-3.963-1.321-6.798-5.08-6.693-9.482.127-5.36 4.525-9.572 9.926-9.518 5.38.054 9.725 4.4 9.725 9.753 0 .122-.003.243-.007.364l-.003.081a10.01 10.01 0 0 1-.021.336l-.01.106a9.14 9.14 0 0 1-.074.612c-1.203 7.866-11.526 12.287-11.582 12.311.612.081 1.236.123 1.87.123 7.754 0 14.04-6.238 14.04-13.933C62.511 6.238 56.225 0 48.471 0"/>
    </g>
    <rect width="97" height="71.637"/>
  </g>
</svg>
