<svg xmlns="http://www.w3.org/2000/svg" width="54" height="72" viewBox="0 0 54 72">
  <title>
    logo-color-here
  </title>
  <g fill="none" fill-rule="evenodd">
    <g transform="translate(0 11)">
      <path fill="#383C45" d="M41.687 21.658l-4.105-4.107c-3.338-3.34-2.358-5.117-1.592-5.884.49-.49.98-.857 1.317-1.041a9.481 9.481 0 0 0 1.838 2.482c3.981 4.014 8.33 3.463 11.67.092 1.99-1.992 2.94-3.83 3.185-4.75l-3.277-1.808c-.398.858-1.317 2.33-2.359 3.371-1.807 1.839-3.522 1.839-4.686.889l6.83-6.803-.857-.858c-4.013-4.046-7.75-4.26-11.119-.889C36.296 4.59 35.99 7.347 36.97 9.86l-2.512-2.972c-.245.091-.704.459-1.164.919-1.316 1.348-1.623 3.432-1.286 4.811l-1.685-1.44-3.338 3.34 4.594 4.598c-3.645-3.004-6.923-2.85-9.955.183-3.063 3.065-2.879 6.803-.337 9.929l-.429-.429c-2.726-2.727-5.36-3.31-7.964-.674-1.53 1.501-1.776 2.972-1.623 4.29l-6.432-6.404-3.737 3.738 12.435 12.473h7.597l-5.238-5.24c-1.837-1.809-2.389-3.065-1.256-4.199.828-.857 1.777-.827 2.941.337l6.31 6.344 3.798-3.8-4.717-4.719c3.737 3.095 7.81 2.33 10.903-.797 1.624-1.593 2.513-3.065 2.941-4.075l-3.339-1.87c-.49.859-1.225 1.93-2.02 2.759-1.84 1.838-3.554 1.838-4.718.888l6.77-6.772 4.38 4.379 3.798-3.8zM24.35 25.765c-1.042-1.196-1.072-2.605 0-3.678 1.041-1.042 2.389-1.073 3.706 0l-3.706 3.678zM41.289 8.817c-1.042-1.195-1.072-2.574 0-3.677 1.041-1.042 2.39-1.073 3.675 0L41.29 8.817z"/>
      <polygon fill="#43DAD2" points="13.776 42.222 0 42.222 6.893 49.172"/>
    </g>
    <rect width="54" height="72"/>
  </g>
</svg>
